<svg xmlns="http://www.w3.org/2000/svg" width="72" height="102.91" viewBox="0 0 72 102.91">
  <defs>
    <style>
      .cls-1 {
        fill: #fff;
        fill-rule: evenodd;
      }
    </style>
  </defs>
  <path class="cls-1" d="M676.781,1018.9H621.219a8.235,8.235,0,0,1-8.232-8.23V924.238a8.233,8.233,0,0,1,8.232-8.232h55.562a8.233,8.233,0,0,1,8.232,8.232v86.432A8.235,8.235,0,0,1,676.781,1018.9Zm-28.038-2.31a6.56,6.56,0,1,0-6.56-6.56A6.562,6.562,0,0,0,648.743,1016.59Zm10.8-97.5H637.939a1.286,1.286,0,0,0,0,2.572h21.608A1.286,1.286,0,0,0,659.547,919.093Zm20.064,5.659H617.617v75.888h61.994V924.752ZM647.3,1006.94h3.179a1.565,1.565,0,0,1,1.567,1.56v3.43a1.565,1.565,0,0,1-1.567,1.56H647.3a1.565,1.565,0,0,1-1.566-1.56v-3.43A1.565,1.565,0,0,1,647.3,1006.94Z" transform="translate(-613 -916)"/>
</svg>
