<svg xmlns="http://www.w3.org/2000/svg" viewBox="0 0 67 65" width="67" height="65">
	<style>
		tspan { white-space:pre }
		.shp0 { opacity: 0.529;fill: #ffffff } 
	</style>
	<path id="Shape 3" class="shp0" d="M4.08,0.88h58.63c1.84,0 3.33,1.49 3.33,3.33v47.8c0,1.84 -1.49,3.33 -3.33,3.33l-20.8,0c0.11,5.78 3.04,8.47 3.04,8.47v1.18h-23.17v-1.18c3.96,-2.06 3.25,-7.75 3.14,-8.47h-20.85c-1.84,0 -3.33,-1.49 -3.33,-3.33v-47.8c0,-1.84 1.49,-3.33 3.33,-3.33zM3.92,7.71v32.48c0,1.84 1.49,3.33 3.33,3.33h52.3c1.84,0 3.33,-1.49 3.33,-3.33v-32.48c0,-1.84 -1.49,-3.33 -3.33,-3.33h-52.3c-1.84,0 -3.33,1.49 -3.33,3.33zM32.95,48.55c0,0 -1.14,-0.8 -1.65,0.42c0,0 -0.48,1.27 0.72,2.54c0,0 0.63,0.33 1.07,0.11c0,0 0.82,0.3 1.14,-0.03c0.33,-0.33 0.38,-0.77 0.6,-1.02c0,0 -0.96,-0.59 -0.1,-1.79c0,0 -0.15,-0.38 -0.63,-0.45c-0.48,-0.07 -1.15,0.22 -1.15,0.22zM33.02,48.08c0,0 0.77,0.1 1.09,-0.62c0,0 -0.77,-0.37 -1.09,0.62z" />
</svg>