<svg xmlns="http://www.w3.org/2000/svg" viewBox="0 0 30 56" width="30" height="56">
	<style>
		tspan { white-space:pre }
		.shp0 { opacity: 0.529;fill: #ffffff } 
	</style>
	<path id="Shape 1" class="shp0" d="M4.67,0.32h20.26c2.49,0 4.5,2.02 4.5,4.5v46.34c0,2.49 -2.02,4.5 -4.5,4.5h-20.26c-2.49,0 -4.5,-2.02 -4.5,-4.5v-46.34c0,-2.49 2.02,-4.5 4.5,-4.5zM2.61,46.84h24.76v-38.84h-24.76zM10.8,4.57c0,0.38 0.31,0.69 0.69,0.69h6.75c0.38,0 0.69,-0.31 0.69,-0.69c0,-0.38 -0.31,-0.69 -0.69,-0.69h-6.75c-0.38,0 -0.69,0.31 -0.69,0.69zM12.93,51.1c0,1.14 0.92,2.06 2.06,2.06c1.14,0 2.06,-0.92 2.06,-2.06c0,-1.14 -0.92,-2.06 -2.06,-2.06c-1.14,0 -2.06,0.92 -2.06,2.06z" />
</svg>