<svg xmlns="http://www.w3.org/2000/svg" viewBox="0 0 71 84" width="71" height="84">
	<style>
		tspan { white-space:pre }
		.shp0 { fill: #ffffff } 
	</style>
	<path id="Shape 12" class="shp0" d="M35.08 83.01C15.71 83.01 0.01 67.31 0.01 47.94C0.01 31.93 10.74 18.46 25.41 14.25L25.41 25.47C16.7 29.22 10.61 37.86 10.61 47.94C10.61 61.45 21.56 72.41 35.08 72.41C48.59 72.41 59.54 61.45 59.54 47.94C59.54 37.96 53.55 29.38 44.98 25.58L44.98 14.31C59.52 18.59 70.15 32.02 70.15 47.94C70.15 67.31 54.45 83.01 35.08 83.01ZM34.96 54.58C32.13 54.58 29.83 52.29 29.83 49.46L29.83 6.11C29.83 3.28 32.13 0.99 34.96 0.99C37.79 0.99 40.09 3.28 40.09 6.11L40.09 49.46C40.09 52.29 37.79 54.58 34.96 54.58Z" />
</svg>