<svg xmlns="http://www.w3.org/2000/svg" viewBox="0 0 44 67" width="44" height="67">
	<style>
		tspan { white-space:pre }
		.shp0 { opacity: 0.529;fill: #ffffff } 
	</style>
	<path id="Shape 2" class="shp0" d="M4.24,0.45h36.37c1.87,0 3.38,1.52 3.38,3.38v59.63c0,1.87 -1.51,3.38 -3.38,3.38h-36.37c-1.87,0 -3.38,-1.51 -3.38,-3.38v-59.63c0,-1.87 1.51,-3.38 3.38,-3.38zM3.39,60.37h38.06v-52.87h-38.06zM22.28,4.26c0,0.31 0.25,0.56 0.56,0.56c0.31,0 0.56,-0.25 0.56,-0.56c0,-0.31 -0.25,-0.56 -0.56,-0.56c-0.31,0 -0.56,0.25 -0.56,0.56zM20.78,63.68c0,0.95 0.77,1.72 1.72,1.72c0.95,0 1.72,-0.77 1.72,-1.72c0,-0.95 -0.77,-1.72 -1.72,-1.72c-0.95,0 -1.72,0.77 -1.72,1.72z" />
</svg>