<?xml version="1.0" encoding="utf-8"?>
<!-- Generator: Adobe Illustrator 22.1.0, SVG Export Plug-In . SVG Version: 6.00 Build 0)  -->
<svg version="1.1" id="Layer_1" xmlns="http://www.w3.org/2000/svg" xmlns:xlink="http://www.w3.org/1999/xlink" x="0px" y="0px"
	 viewBox="0 0 32 32" style="enable-background:new 0 0 32 32;" xml:space="preserve">
<path class="st0" d="M28.6,3.5L28.6,3.5c-1.1-1.1-2.4-1.7-3.8-1.9c-2-0.3-4,0.4-5.6,1.8L2.6,19.7l-0.7,0.7c-0.1,0.1-0.3,0.3-0.3,0.5
	c-0.1,0.3-0.1,0.5-0.1,0.6V29c0,0.9,0.6,1.5,1.5,1.5h7.4c0.4,0,0.7-0.1,1.1-0.4L28.6,13C31.2,10.3,31.2,6.2,28.6,3.5z M8.3,27.5H4.5
	v-3.8L8.3,27.5z M25.4,12L11.2,26.1l-5.5-5.3L20.1,6.6L25.4,12z M27.3,9.6l-4.8-4.8c0.6-0.2,1.2-0.3,1.9-0.2
	c0.8,0.1,1.5,0.4,2.1,1.1C27.5,6.6,27.8,8.2,27.3,9.6z"/>
</svg>
