<?xml version="1.0" standalone="no"?>
<!DOCTYPE svg PUBLIC "-//W3C//DTD SVG 20010904//EN"
 "http://www.w3.org/TR/2001/REC-SVG-20010904/DTD/svg10.dtd">
<svg version="1.0" xmlns="http://www.w3.org/2000/svg"
 width="560.000000pt" height="298.000000pt" viewBox="0 0 560.000000 298.000000"
 preserveAspectRatio="xMidYMid meet">
<metadata>
Created by potrace 1.15, written by Peter Selinger 2001-2017
</metadata>
<g transform="translate(0.000000,298.000000) scale(0.100000,-0.100000)"
fill="#000000" stroke="none">
<path d="M1154 2513 c3 -21 6 -50 6 -65 l0 -28 1015 0 c1092 0 1057 2 1085
-49 7 -13 10 -312 10 -893 -1 -965 4 -902 -67 -919 -56 -13 -2728 -12 -2776 2
-75 21 -72 -12 -75 685 l-3 622 -30 12 c-16 7 -48 26 -69 41 -22 16 -42 29
-45 29 -3 0 -5 -323 -5 -717 0 -793 -3 -759 63 -807 28 -21 39 -21 678 -24
511 -2 649 -5 649 -15 0 -37 -75 -164 -132 -223 l-61 -64 -117 0 c-129 0 -144
-6 -138 -57 l3 -28 760 0 760 0 3 34 c2 20 -2 37 -10 42 -7 5 -64 9 -126 9
l-114 0 -63 61 c-58 56 -120 151 -140 217 l-6 22 543 0 c339 0 557 4 580 10
20 6 48 24 62 41 l26 31 0 992 0 993 -22 28 c-45 57 5 55 -1169 55 l-1082 0 7
-37z"/>
<path d="M3714 2086 l-34 -34 0 -787 0 -787 34 -34 34 -34 569 0 c509 0 571 2
592 16 52 37 51 27 51 831 0 482 -4 761 -10 785 -6 22 -23 46 -39 58 -28 20
-41 20 -596 20 l-567 0 -34 -34z m1100 -118 c14 -20 16 -104 16 -710 0 -611
-2 -688 -16 -702 -14 -14 -73 -16 -505 -16 l-489 0 -10 26 c-7 17 -9 272 -8
704 3 651 4 679 22 699 19 21 24 21 497 21 l478 0 15 -22z"/>
<path d="M5238 1009 c-17 -9 -18 -34 -18 -294 0 -244 2 -286 16 -299 13 -13
42 -16 165 -16 85 0 159 5 170 10 18 10 19 24 19 298 0 211 -3 291 -12 300
-15 15 -315 16 -340 1z m322 -299 l0 -240 -155 0 -155 0 0 240 0 240 155 0
155 0 0 -240z"/>
</g>
</svg>
