<?xml version="1.0"?>
<svg xmlns="http://www.w3.org/2000/svg" viewBox="0 0 32 30" width="32" height="30">
	<style>
		tspan { white-space:pre }
		.shp0 { fill: #81699d } 
	</style>
	<path id="Shape 9" class="shp0" d="M16 0C7.72 0 1 6.72 1 15C1 23.28 7.72 30 16 30C24.28 30 31 23.28 31 15C31 6.72 24.28 0 16 0ZM19.97 14.94L17.37 14.94C17.37 19.09 17.37 24.2 17.37 24.2L13.52 24.2C13.52 24.2 13.52 19.14 13.52 14.94L11.69 14.94L11.69 11.67L13.52 11.67L13.52 9.55C13.52 8.03 14.24 5.66 17.41 5.66L20.26 5.67L20.26 8.85C20.26 8.85 18.53 8.85 18.19 8.85C17.85 8.85 17.37 9.02 17.37 9.74L17.37 11.67L20.31 11.67L19.97 14.94Z"/>
</svg>
