<?xml version="1.0"?>
<svg xmlns="http://www.w3.org/2000/svg" viewBox="0 0 30 30" width="30" height="30">
	<style>
		tspan { white-space:pre }
		.shp0 { fill: #81699d } 
	</style>
	<path id="Shape 8" class="shp0" d="M15 0C6.72 0 0 6.72 0 15C0 23.28 6.72 30 15 30C23.28 30 30 23.28 30 15C30 6.72 23.28 0 15 0ZM22.56 11.98C22.56 12.14 22.57 12.3 22.57 12.47C22.57 17.46 18.77 23.22 11.81 23.22C9.68 23.22 7.69 22.6 6.02 21.52C6.31 21.56 6.61 21.57 6.92 21.57C8.69 21.57 10.32 20.97 11.61 19.96C9.96 19.93 8.56 18.83 8.08 17.33C8.31 17.38 8.55 17.4 8.79 17.4C9.14 17.4 9.47 17.35 9.79 17.27C8.06 16.92 6.76 15.39 6.76 13.56C6.76 13.54 6.76 13.53 6.76 13.51C7.27 13.8 7.85 13.97 8.47 13.99C7.46 13.31 6.79 12.15 6.79 10.84C6.79 10.15 6.97 9.5 7.3 8.94C9.16 11.23 11.95 12.73 15.09 12.89C15.03 12.61 14.99 12.32 14.99 12.03C14.99 9.94 16.69 8.25 18.77 8.25C19.86 8.25 20.84 8.71 21.53 9.44C22.4 9.27 23.2 8.96 23.93 8.52C23.65 9.41 23.05 10.15 22.27 10.61C23.04 10.52 23.77 10.32 24.44 10.02C23.94 10.78 23.3 11.44 22.56 11.98Z"/>
</svg>
